<?xml version="1.0" encoding="iso-8859-1"?>
<!-- Generator: Adobe Illustrator 19.0.0, SVG Export Plug-In . SVG Version: 6.00 Build 0)  -->
<svg version="1.1" id="Layer_1" xmlns="http://www.w3.org/2000/svg" xmlns:xlink="http://www.w3.org/1999/xlink" x="0px" y="0px"
	 viewBox="0 0 511.998 511.998" style="enable-background:new 0 0 511.998 511.998;" xml:space="preserve">
<g>
	<g>
		<g fill="white">
			<path d="M282.844,205.771c-1.772,1.405-3.643,2.545-5.53,3.477h17.899c7.112-8.297,7.237-17.608,1.999-24.223
				c-5.394-6.822-12.314-8.105-23.854-4.152c-8.358,2.678-12.268,3.19-14.249,0.686c-1.677-2.117-1.759-5.499,3.156-9.4
				c5.458-4.316,10.312-5.338,12.941-6.065l-4.575-10.289c-3.459,0.763-7.711,2.406-12.966,6.198l-2.629-3.328
				c-0.673-0.852-1.677-1.454-2.862-1.58c-1.157-0.138-2.271,0.215-3.136,0.888l-0.727,0.584c-0.858,0.678-1.449,1.677-1.592,2.852
				c-0.136,1.167,0.215,2.284,0.896,3.141l3.049,3.848c-6.843,8.01-7.401,16.955-2.122,23.613
				c5.816,7.347,14.344,6.761,24.614,3.069c7.099-2.552,10.964-2.652,13.24,0.218C288.799,198.349,287.166,202.35,282.844,205.771z"
				/>
			<path d="M141.658,209.25L316.091,71.089l20.593-16.317c3.318-2.624,8.131-2.063,10.76,1.252l16.274,20.547l56.049,70.766
				c0.709,0.883,1.147,1.892,1.403,2.947c0.622,2.542-0.108,5.294-2.035,7.222c-0.202,0.202-0.387,0.422-0.609,0.596l-0.028,0.018
				l-20.536,16.276l-44.006,34.854h17.272l53.965-42.734c7.928-6.285,9.277-17.905,3-25.843l-72.328-91.307
				c-6.287-7.928-17.905-9.275-25.843-2.995L124.368,209.25H141.658z"/>
			<path d="M346.542,209.25l48.794-38.653c-7.772-13.056-5.837-29.78,4.692-40.742c0.013-0.008,0.013-0.008,0.018-0.018
				l-40.123-50.647c-13.048,7.777-29.778,5.834-40.735-4.687L149.059,209.25h82.189c-12.562-22.377-9.813-49.009,7.808-62.971
				c19.94-15.793,51.341-9.365,70.126,14.351c11.853,14.958,15.834,33.208,12.18,48.62H346.542z"/>
			<path d="M466.934,336.889c-1.213-1.201-2.79-1.807-4.37-1.807h-86.4c-7.892,0-15.787,3.013-21.814,9.037
				s-9.037,13.921-9.037,21.824c0,7.895,3.011,15.793,9.037,21.819c6.026,6.024,13.919,9.037,21.814,9.037h86.4
				c1.58,0,3.156-0.604,4.37-1.812c1.203-1.201,1.807-2.78,1.807-4.362v-49.372C468.741,339.677,468.135,338.092,466.934,336.889z
				 M376.164,381.494c-8.589,0-15.555-6.966-15.555-15.555c0-8.591,6.966-15.557,15.555-15.557c8.591,0,15.557,6.966,15.557,15.557
				S384.755,381.494,376.164,381.494z"/>
			<path d="M347.07,395.029c-7.767-7.772-12.052-18.099-12.052-29.089c0-10.993,4.285-21.322,12.052-29.099
				c7.772-7.767,18.102-12.045,29.089-12.045h80.904v-74.058c0-7.898-3.013-15.793-9.037-21.819
				c-6.024-6.024-13.921-9.037-21.824-9.037H74.803c-2.632,0-5.266-1.004-7.27-3.013c-2.017-2.01-3.018-4.639-3.018-7.276v-0.684
				c0-2.627,0.998-5.263,3.018-7.273c2.005-2.01,4.639-3.016,7.27-3.016h10.557l9.111-21.253H74.117
				c-7.895,0-15.795,3.008-21.814,9.037c-6.034,6.021-9.047,13.921-9.047,21.814v272.924c0,7.898,3.016,15.793,9.047,21.819
				c6.019,6.024,13.916,9.037,21.814,9.037h352.087c7.903,0,15.798-3.011,21.824-9.037c6.021-6.026,9.037-13.921,9.037-21.819
				v-74.063h-80.904C365.176,407.079,354.844,402.804,347.07,395.029z M433.401,311.424c0,1.695-1.38,3.085-3.08,3.085
				s-3.085-1.39-3.085-3.085v-14.403c0-1.695,1.385-3.085,3.085-3.085s3.08,1.39,3.08,3.085V311.424z M433.401,280.569
				c0,1.69-1.38,3.08-3.08,3.08s-3.085-1.39-3.085-3.08v-14.403c0-1.695,1.385-3.085,3.085-3.085s3.08,1.39,3.08,3.085V280.569z
				 M424.574,243.536h1.628c3.84,0,7.199,3.364,7.199,7.199v1.633c0,1.705-1.375,3.087-3.08,3.087s-3.085-1.382-3.085-3.087v-1.633
				c0-0.448-0.573-1.027-1.032-1.027h-1.628c-1.705,0-3.09-1.385-3.09-3.085C421.486,244.916,422.871,243.538,424.574,243.536z
				 M397.253,243.536h14.395c1.7,0,3.095,1.388,3.095,3.087c0,1.695-1.395,3.085-3.095,3.085h-14.395c-1.7,0-3.087-1.39-3.087-3.085
				C394.166,244.923,395.553,243.538,397.253,243.536z M366.39,243.536h14.4c1.7,0,3.09,1.388,3.09,3.087
				c0,1.695-1.39,3.085-3.09,3.085h-14.4c-1.7,0-3.082-1.39-3.082-3.085C363.308,244.923,364.69,243.538,366.39,243.536z
				 M66.919,252.37v-1.633c0-3.835,3.361-7.199,7.201-7.199h1.628c1.708,0,3.085,1.38,3.085,3.087c0,1.7-1.377,3.085-3.085,3.085
				H74.12c-0.453,0-1.032,0.579-1.032,1.027v1.633c0,1.705-1.377,3.087-3.082,3.087s-3.09-1.382-3.09-3.087H66.919z M66.916,266.166
				c0-1.695,1.39-3.085,3.09-3.085s3.082,1.39,3.082,3.085v14.403c0,1.69-1.382,3.08-3.082,3.08c-1.7,0-3.09-1.39-3.09-3.08V266.166
				z M66.916,297.022c0-1.695,1.39-3.085,3.09-3.085s3.082,1.39,3.082,3.085v14.403c0,1.695-1.382,3.085-3.082,3.085
				c-1.7,0-3.09-1.39-3.09-3.085V297.022z M66.916,327.88c0-1.695,1.39-3.085,3.09-3.085s3.082,1.39,3.082,3.085v14.403
				c0,1.695-1.382,3.085-3.082,3.085c-1.7,0-3.09-1.39-3.09-3.085V327.88z M66.916,358.738c0-1.695,1.39-3.085,3.09-3.085
				s3.082,1.39,3.082,3.085v14.403c0,1.7-1.382,3.085-3.082,3.085c-1.7,0-3.09-1.385-3.09-3.085V358.738z M66.916,389.597
				c0-1.695,1.39-3.085,3.09-3.085s3.082,1.39,3.082,3.085v14.403c0,1.7-1.382,3.08-3.082,3.08c-1.7,0-3.09-1.38-3.09-3.08V389.597z
				 M66.916,420.452c0-1.695,1.39-3.085,3.09-3.085s3.082,1.39,3.082,3.085v14.397c0,1.705-1.382,3.09-3.082,3.09
				c-1.7,0-3.09-1.385-3.09-3.09V420.452z M66.916,451.31c0-1.695,1.39-3.085,3.09-3.085s3.082,1.39,3.082,3.085v14.403
				c0,1.7-1.382,3.085-3.082,3.085c-1.7,0-3.09-1.385-3.09-3.085V451.31z M75.746,488.343h-1.633c-3.837,0-7.201-3.366-7.201-7.201
				v-1.633c0-1.705,1.385-3.085,3.09-3.085s3.082,1.38,3.082,3.085v1.633c0,0.448,0.579,1.027,1.032,1.027h1.633
				c1.705,0,3.087,1.382,3.087,3.085C78.835,486.964,77.456,488.341,75.746,488.343z M103.076,488.341h-14.4
				c-1.7,0-3.087-1.393-3.087-3.087c0-1.695,1.388-3.085,3.087-3.085h14.4c1.692,0,3.087,1.39,3.087,3.085
				C106.163,486.948,104.768,488.341,103.076,488.341z M103.076,249.708h-14.4c-1.7,0-3.087-1.39-3.087-3.085
				c0-1.7,1.388-3.087,3.087-3.087h14.4c1.692,0,3.087,1.388,3.087,3.087C106.163,248.318,104.768,249.708,103.076,249.708z
				 M133.932,488.341h-14.392c-1.705,0-3.092-1.393-3.092-3.087c0-1.695,1.388-3.085,3.092-3.085h14.392
				c1.695,0,3.085,1.39,3.085,3.085C137.016,486.948,135.626,488.341,133.932,488.341z M133.932,249.708h-14.392
				c-1.705,0-3.092-1.39-3.092-3.085c0-1.7,1.388-3.087,3.092-3.087h14.392c1.695,0,3.085,1.388,3.085,3.087
				C137.016,248.318,135.626,249.708,133.932,249.708z M164.79,488.341h-14.403c-1.7,0-3.082-1.393-3.082-3.087
				c0-1.695,1.382-3.085,3.082-3.085h14.403c1.695,0,3.09,1.39,3.09,3.085C167.88,486.948,166.485,488.341,164.79,488.341z
				 M164.79,249.708h-14.403c-1.7,0-3.082-1.39-3.082-3.085c0-1.7,1.382-3.087,3.082-3.087h14.403c1.695,0,3.09,1.388,3.09,3.087
				C167.88,248.318,166.485,249.708,164.79,249.708z M195.646,488.341h-14.397c-1.7,0-3.087-1.393-3.087-3.087
				c0-1.695,1.388-3.085,3.087-3.085h14.397c1.7,0,3.085,1.39,3.085,3.085C198.73,486.948,197.345,488.341,195.646,488.341z
				 M195.646,249.708h-14.397c-1.7,0-3.087-1.39-3.087-3.085c0-1.7,1.388-3.087,3.087-3.087h14.397c1.7,0,3.085,1.388,3.085,3.087
				C198.73,248.318,197.345,249.708,195.646,249.708z M226.506,488.341h-14.4c-1.7,0-3.087-1.393-3.087-3.087
				c0-1.695,1.388-3.085,3.087-3.085h14.4c1.692,0,3.082,1.39,3.082,3.085C229.589,486.948,228.199,488.341,226.506,488.341z
				 M226.506,249.708h-14.4c-1.7,0-3.087-1.39-3.087-3.085c0-1.7,1.388-3.087,3.087-3.087h14.4c1.692,0,3.082,1.388,3.082,3.087
				C229.589,248.318,228.199,249.708,226.506,249.708z M257.36,488.341h-14.397c-1.7,0-3.082-1.393-3.082-3.087
				c0-1.695,1.382-3.085,3.082-3.085h14.397c1.7,0,3.087,1.39,3.087,3.085C260.447,486.948,259.059,488.341,257.36,488.341z
				 M257.36,249.708h-14.397c-1.7,0-3.082-1.39-3.082-3.085c0-1.7,1.382-3.087,3.082-3.087h14.397c1.7,0,3.087,1.388,3.087,3.087
				C260.447,248.318,259.059,249.708,257.36,249.708z M288.223,488.341h-14.405c-1.692,0-3.087-1.393-3.087-3.087
				c0-1.695,1.395-3.085,3.087-3.085h14.405c1.7,0,3.082,1.39,3.082,3.085C291.305,486.948,289.923,488.341,288.223,488.341z
				 M288.223,249.708h-14.405c-1.692,0-3.087-1.39-3.087-3.085c0-1.7,1.395-3.087,3.087-3.087h14.405c1.7,0,3.082,1.388,3.082,3.087
				C291.305,248.318,289.923,249.708,288.223,249.708z M319.081,488.341h-14.4c-1.7,0-3.087-1.393-3.087-3.087
				c0-1.695,1.388-3.085,3.087-3.085h14.4c1.692,0,3.085,1.39,3.085,3.085C322.166,486.948,320.773,488.341,319.081,488.341z
				 M319.081,249.708h-14.4c-1.7,0-3.087-1.39-3.087-3.085c0-1.7,1.388-3.087,3.087-3.087h14.4c1.692,0,3.085,1.388,3.085,3.087
				C322.166,248.318,320.773,249.708,319.081,249.708z M335.539,243.536h14.392c1.7,0,3.087,1.388,3.087,3.087
				c0,1.695-1.388,3.085-3.087,3.085h-14.392c-1.7,0-3.095-1.39-3.095-3.085C332.444,244.923,333.84,243.538,335.539,243.536z
				 M349.932,488.341h-14.392c-1.7,0-3.095-1.393-3.095-3.087c0-1.695,1.395-3.085,3.095-3.085h14.392c1.7,0,3.087,1.39,3.087,3.085
				C353.019,486.948,351.632,488.341,349.932,488.341z M427.236,420.452c0-1.695,1.385-3.085,3.085-3.085s3.08,1.39,3.08,3.085
				v14.397c0,1.705-1.38,3.09-3.08,3.09s-3.085-1.385-3.085-3.09V420.452z M427.236,451.31c0-1.695,1.385-3.085,3.085-3.085
				s3.08,1.39,3.08,3.085v14.403c0,1.7-1.38,3.085-3.08,3.085s-3.085-1.385-3.085-3.085V451.31z M424.579,482.166h1.628
				c0.456,0,1.032-0.576,1.032-1.027v-1.633c0-1.705,1.38-3.085,3.085-3.085s3.08,1.38,3.08,3.085v1.633
				c0,3.837-3.359,7.201-7.199,7.201h-1.628c-1.705,0-3.09-1.377-3.09-3.087C421.486,483.551,422.871,482.169,424.579,482.166z
				 M397.253,482.169h14.395c1.7,0,3.095,1.39,3.095,3.085c0,1.695-1.395,3.087-3.095,3.087h-14.395c-1.7,0-3.087-1.393-3.087-3.087
				S395.553,482.169,397.253,482.169z M383.88,485.254c0,1.695-1.39,3.087-3.09,3.087h-14.4c-1.7,0-3.082-1.393-3.082-3.087
				c0-1.695,1.382-3.085,3.082-3.085h14.4C382.49,482.169,383.88,483.559,383.88,485.254z"/>
			<path d="M421.328,183.171l-19.492,15.447h25.761v-0.681c0-5.266-2.01-10.532-6.026-14.551
				C421.496,183.309,421.412,183.248,421.328,183.171z"/>
			<path d="M164.713,164.186l12.324-9.764c0.054-0.138,0.087-0.256,0.148-0.399c2.744-6.397,6.533-9.608,8.499-11.492l-8.927-6.881
				c-2.678,2.322-5.64,5.786-8.445,11.63l-3.894-1.677c-1.006-0.43-2.176-0.481-3.261-0.041c-1.098,0.44-1.91,1.277-2.345,2.284
				l-0.369,0.86c-0.422,1.004-0.476,2.171-0.036,3.264c0.43,1.091,1.272,1.902,2.273,2.332l4.516,1.933
				C164.593,159.074,164.447,161.736,164.713,164.186z"/>
			<path d="M103.66,209.25l72.765-169.743l10.353-24.148c1.669-3.883,6.177-5.686,10.061-4.017l24.1,10.324L301.2,56.08l9.357-7.414
				c-0.768-0.481-1.572-0.929-2.429-1.293L201.068,1.483c-9.298-3.991-20.165,0.358-24.159,9.651L91.994,209.25H103.66z"/>
			<path d="M278.226,51.231l-59.392-25.457c-7.777,13.056-23.414,19.308-38.06,15.268L109.11,208.218l37.322-29.558
				c-5.88-11.594-6.997-24.637-1.974-36.365c10.02-23.38,40.694-32.668,68.511-20.746c1.193,0.512,2.355,1.068,3.502,1.641
				l63.119-49.994c-2.808-6.797-3.433-14.492-1.372-21.939C278.226,51.244,278.226,51.236,278.226,51.231z"/>
		</g>
	</g>
</g>
</svg>
